<svg xmlns="http://www.w3.org/2000/svg">
<defs>
<symbol id="label-gray-min-icon"
    viewBox="0 0 12 12">
    <path
        d="M9.357 1C10.264 1 11 1.736 11 2.643V6.07c0 .436-.173.854-.481 1.162L7.232 10.52a1.643 1.643 0 01-2.323 0L1.48 7.09c-.64-.64-.64-1.68.001-2.322L4.768 1.48C5.076 1.173 5.494 1 5.93 1h3.427zm-.07.91H5.93a.805.805 0 00-.569.235L2.145 5.362a.805.805 0 000 1.138L5.5 9.855a.805.805 0 001.138 0l3.217-3.217a.805.805 0 00.236-.569V2.713a.804.804 0 00-.804-.804zM7.364 3.726a.91.91 0 110 1.818.91.91 0 010-1.818z"
        fill="currentColor" fill-rule="evenodd"></path>
</symbol>

<symbol id="date-min-icon" viewBox="0 0 12 12">
    <path fill="currentColor" fill-rule="nonzero"
        d="M9.5 1A1.5 1.5 0 0 1 11 2.5v7A1.5 1.5 0 0 1 9.5 11h-7A1.5 1.5 0 0 1 1 9.5v-7A1.5 1.5 0 0 1 2.5 1h7zm0 1h-7a.5.5 0 0 0-.5.5v7a.5.5 0 0 0 .5.5h7a.5.5 0 0 0 .5-.5v-7a.5.5 0 0 0-.5-.5zM8 7.25a.75.75 0 1 1 0 1.5.75.75 0 0 1 0-1.5zM8.5 4a.5.5 0 0 1 0 1h-5a.5.5 0 0 1 0-1h5z">
    </path>
</symbol>

<symbol id="check-box-icon">
    <path
        d="M11.23 13.7l-2.15-2a.55.55 0 0 0-.74-.01l.03-.03a.46.46 0 0 0 0 .68L11.24 15l5.4-5.01a.45.45 0 0 0 0-.68l.02.03a.55.55 0 0 0-.73 0l-4.7 4.35z">
    </path>
</symbol>

<symbol id="add-task-icon">
    <path
        d="M6 6V.5a.5.5 0 0 1 1 0V6h5.5a.5.5 0 1 1 0 1H7v5.5a.5.5 0 1 1-1 0V7H.5a.5.5 0 0 1 0-1H6z"
        fill-rule="evenodd">
    </path>
</symbol>

<symbol id="label-black-icon">
    <path fill-rule="nonzero"
        d="M5.914 11.086l4.5-4.5A2 2 0 0 1 11.828 6H16a2 2 0 0 1 2 2v4.172a2 2 0 0 1-.586 1.414l-4.5 4.5a2 2 0 0 1-2.828 0l-4.172-4.172a2 2 0 0 1 0-2.828zM14 11a1 1 0 1 0 0-2 1 1 0 0 0 0 2z">
    </path>
</symbol>

<symbol id="arow-open-icon">
    <path fill="none" stroke="currentColor" d="M16 10l-4 4-4-4">
    </path>
</symbol>

<symbol id="flag-blue-icon">
    <path fill="#246fe0" fill-rule="nonzero"
        d="M5 13.777V19.5a.5.5 0 1 1-1 0V5a.5.5 0 0 1 .223-.416C5.313 3.857 6.742 3.5 8.5 3.5c1.113 0 1.92.196 3.658.776C13.796 4.82 14.53 5 15.5 5c1.575 0 2.813-.31 3.723-.916A.5.5 0 0 1 20 4.5V13a.5.5 0 0 1-.223.416c-1.09.727-2.519 1.084-4.277 1.084-1.113 0-1.92-.196-3.658-.776C10.204 13.18 9.47 13 8.5 13c-1.45 0-2.614.262-3.5.777z">
    </path>
</symbol>

<symbol id="flag-yellow-icon">
    <path fill="#EB8909" fill-rule="nonzero"
        d="M5 13.777V19.5a.5.5 0 1 1-1 0V5a.5.5 0 0 1 .223-.416C5.313 3.857 6.742 3.5 8.5 3.5c1.113 0 1.92.196 3.658.776C13.796 4.82 14.53 5 15.5 5c1.575 0 2.813-.31 3.723-.916A.5.5 0 0 1 20 4.5V13a.5.5 0 0 1-.223.416c-1.09.727-2.519 1.084-4.277 1.084-1.113 0-1.92-.196-3.658-.776C10.204 13.18 9.47 13 8.5 13c-1.45 0-2.614.262-3.5.777z">
    </path>
</symbol>

<symbol id="flag-red-icon">
    <path fill="#d1453b" fill-rule="nonzero"
        d="M5 13.777V19.5a.5.5 0 1 1-1 0V5a.5.5 0 0 1 .223-.416C5.313 3.857 6.742 3.5 8.5 3.5c1.113 0 1.92.196 3.658.776C13.796 4.82 14.53 5 15.5 5c1.575 0 2.813-.31 3.723-.916A.5.5 0 0 1 20 4.5V13a.5.5 0 0 1-.223.416c-1.09.727-2.519 1.084-4.277 1.084-1.113 0-1.92-.196-3.658-.776C10.204 13.18 9.47 13 8.5 13c-1.45 0-2.614.262-3.5.777z">
    </path>
</symbol>
</defs>
</svg>